<svg xmlns="http://www.w3.org/2000/svg" viewBox="0 0 136.06 136.06"><defs><style>.a{fill:#b70e0c;}.b{fill:#00101e;}.b,.d{fill-rule:evenodd;}.c,.d{fill:#fff;}</style></defs><title>ccb_logo</title><polygon class="a" points="135.94 94.68 80.89 94.68 108.08 47.58 54.53 47.58 54.42 47.15 54.1 46.81 81.03 0.17 81.64 0 82.25 0.17 135.71 92.74 136.06 94.25 135.94 94.68 135.94 94.68"/><path class="b" d="M81.64,94.25l27.21-47.13,27.21,47.13ZM81.64,0l27.2,47.11-54.42,0L81.64,0ZM0,0H136.06V136.06H0V0Z"/><path class="c" d="M31.45,119.39l-1.05,1c-.45,1.35-1.68,4-3.77,4-2.84,0-3.76-5.26-3.76-9.77,0-4.78,1-9.29,3.74-9.29,2.95,0,3.45,4.32,3.63,6.08l.22.19.62-.94c0-2.68,0-3.41.15-5.39a9.39,9.39,0,0,0-4.64-1.58c-4.29,0-7.24,4.57-7.24,11.53,0,6.71,2.75,11.12,6.38,11.12,3.78,0,5.44-4.56,5.9-6.42l-.18-.51Z"/><path class="c" d="M31.16,123.93a2.15,2.15,0,1,1,2.14,2.14,2.14,2.14,0,0,1-2.14-2.14Z"/><path class="c" d="M15.42,119.39l-1,1c-.46,1.35-1.69,4-3.78,4-2.84,0-3.76-5.26-3.76-9.77,0-4.78,1-9.29,3.74-9.29,2.95,0,3.45,4.32,3.63,6.08l.22.19.62-.94c0-2.68,0-3.41.15-5.39a9.35,9.35,0,0,0-4.64-1.58c-4.29,0-7.24,4.57-7.24,11.53,0,6.71,2.75,11.12,6.38,11.12,3.78,0,5.45-4.56,5.9-6.42l-.18-.51Z"/><path class="c" d="M15.13,123.93a2.15,2.15,0,1,1,2.15,2.14,2.15,2.15,0,0,1-2.15-2.14Z"/><path class="d" d="M38.55,122.1c0,2.14-.31,2.36-1.17,2.36l-.55,1.08.11.37a28.78,28.78,0,0,1,3.28-.15c1.47,0,3.12.15,4.57.15,3.22,0,5-2.39,5-5.92,0-4.41-2.44-5.29-4.14-5.67v-.06c1.55-.47,3.37-1.51,3.37-5.14s-1.94-5-4-5c-1.08,0-3.32.16-4.86.16-1.08,0-1.89-.09-2.84-.16l-.55,1.07.11.38c1.38,0,1.61.22,1.61,2.37v14.2Zm3.34-16.54h1.16c1.68,0,2.86.63,2.86,3.69,0,4.54-2.09,4.57-4,4.57v-8.26Zm0,9.64h1.25c2.58,0,3.54,2,3.54,4.51,0,3.24-1.25,4.72-3.23,4.72-1.36,0-1.56-.75-1.56-2.33v-6.9Z"/><path class="c" d="M62.18,109.19c0-3.25.19-3.66,1.18-3.66l.54-1.07-.1-.38a14.66,14.66,0,0,1-2,.16,16.07,16.07,0,0,1-1.74-.16l-.55,1.07.11.38c1.57,0,1.61.38,1.61,3.66v8.38c0,3.21,0,6.8-3.21,6.8-2.4,0-2.84-2.65-2.84-6.11V107.9c0-2,.28-2.34,1.17-2.37l.55-1.07-.11-.38a30,30,0,0,1-3.11.16,25.66,25.66,0,0,1-3-.16l-.55,1.07.11.38c1.41,0,1.61.38,1.61,2.37v8.53c0,5.67.28,9.89,5.49,9.89,4.32,0,4.87-3.65,4.87-8.6v-8.53Z"/><path class="c" d="M75.93,119.39l-1.05,1c-.45,1.35-1.68,4-3.77,4-2.84,0-3.76-5.26-3.76-9.77,0-4.78,1-9.29,3.74-9.29,3,0,3.45,4.32,3.63,6.08l.22.19.62-.94c0-2.68,0-3.41.15-5.39a9.39,9.39,0,0,0-4.64-1.58c-4.29,0-7.24,4.57-7.24,11.53,0,6.71,2.75,11.12,6.38,11.12,3.78,0,5.44-4.56,5.9-6.42l-.18-.51Z"/><path class="c" d="M78.08,122.1c0,2.14-.31,2.36-1.17,2.36l-.55,1.08.11.37a28.78,28.78,0,0,1,3.28-.15c1,0,1.76.09,2.66.15l.55-1.07-.11-.38c-1.21,0-1.43-.22-1.43-2.36v-7h5.06v7c0,2.14-.31,2.36-1,2.36l-.55,1.08.11.37a25.66,25.66,0,0,1,3.1-.15c1.08,0,1.89.09,2.84.15l.55-1.07-.11-.38c-1.38,0-1.61-.22-1.61-2.36V107.9c0-2.15.31-2.37,1.17-2.37l.55-1.07-.11-.38a26.6,26.6,0,0,1-3.28.16c-1.08,0-1.71-.09-2.66-.16l-.55,1.07.11.38c1.19,0,1.43.22,1.43,2.37v5.85H81.42V107.9c0-2.15.26-2.37,1-2.37l.55-1.07-.11-.38a23.9,23.9,0,0,1-3.1.16c-1.08,0-1.89-.09-2.84-.16l-.55,1.07.11.38c1.38,0,1.61.22,1.61,2.37v14.2Z"/><path class="c" d="M93.83,121c0,2.71-.27,3.46-1.36,3.46l-.55,1.08.11.37c.76-.06,1.53-.15,2.24-.15s1.41.09,2.07.15l.55-1.07-.11-.38c-1.9,0-2-.56-2-3.46V107.33h0l6.8,18.58c.48,0,1-.15,1.45-.15s1,.12,1.39.15V109.44c0-2.87.22-3.75,1.45-3.91l.55-1.07-.11-.38a15,15,0,0,1-2.13.16,18.34,18.34,0,0,1-2.32-.16l-.55,1.07.14.38c1.69,0,2,.41,2,3.91v12h0l-6.36-17.39a11.84,11.84,0,0,1-2.18.16,18.71,18.71,0,0,1-2.46-.16l-.55,1.07.11.38c1.58,0,1.8.25,1.8,2.49v13Z"/><path class="c" d="M108.41,122.1c0,2.14-.31,2.36-1.17,2.36l-.55,1.08.11.37c1.63-.12,3.15-.15,5-.15,2.07,0,4.29,0,6.39.15.13-2.71.3-4.82.63-7.3l-.22-.29-1,1.26c-.46,3.5-.75,4.7-3.74,4.7-1.87,0-2.07-.54-2.07-2.18v-6.83a7.4,7.4,0,0,1,1.48-.13c1.62,0,2.31.47,2.31,3.56l.22.19.63-1c-.06-1.22-.1-2.33-.1-3.56s0-2.42.1-4.15l-.22-.19-.63,1c0,2.24-.14,2.74-2.31,2.74a7.85,7.85,0,0,1-1.48-.12v-7.91h1.13c2.94,0,4.15.6,4.53,4.54l.22.19.62-.92c-.11-1.79-.23-3.46-.23-5.45-1.8.16-4.07.16-6.27.16-1.71,0-3-.09-4.51-.16l-.55,1.07.11.38c1.37,0,1.61.22,1.61,2.37v14.2Z"/><path class="d" d="M121.22,122.1c0,2.14-.31,2.36-1.17,2.36l-.56,1.08.12.37a28.67,28.67,0,0,1,3.28-.15c1.08,0,1.88.09,2.84.15l.55-1.07-.11-.38c-1.38,0-1.62-.22-1.62-2.36v-6.9c2.86,0,3.56,5.93,4.42,10.71.74-.06,1.45-.15,2.18-.15a16.44,16.44,0,0,1,1.71.15l.55-1.07-.11-.38c-.51,0-1-.18-1.25-1.19-.36-1.45-1.46-7.5-4.43-8.76v-.06c1.54-.13,4-1,4-5.26,0-3.91-1.92-5.11-3.68-5.11-1,0-3.45.16-5,.16-1.09,0-1.89-.09-2.84-.16l-.56,1.07.12.38c1.37,0,1.61.22,1.61,2.37v14.2Zm3.33-16.54h1.12c1.71,0,2.79.89,2.79,4,0,3.91-1.69,4.19-3.91,4.19v-8.16Z"/><polygon class="c" points="0 47.15 27.21 94.25 54.42 47.15 0 47.15 0 47.15"/></svg>
